<svg xmlns="http://www.w3.org/2000/svg" viewBox="0 0 392.53 168.72"><defs><style>.cls-1{fill:#fd3f23;}</style></defs><title>Recurso 5</title><g id="Capa_2" data-name="Capa 2"><g id="CONTENIDO"><path class="cls-1" d="M43.33,102.91c-.84,2.91-1.59,5.73-2.25,8.42q-1.26,5.08-2.3,9.23c-.68,2.71-1.17,4.89-1.44,6.48A6.46,6.46,0,0,1,32,132.43a15.93,15.93,0,0,1-8.08-.62,19.38,19.38,0,0,1-7.5-4.88,11.72,11.72,0,0,1-3.48-8.61c0-2.77.69-7.16,2.12-13.4s3.4-13.32,6-21.48,5.65-17,9.21-26.52c3-8.17,6.48-16.38,10.19-24.48a8.35,8.35,0,0,1,6.64-4.81,49.62,49.62,0,0,1,17.08.56,4.75,4.75,0,0,1,3.25,6.57c-3.11,7-6,13.89-8.54,20.65-2.08,5.47-4.07,10.88-5.95,16.14a.62.62,0,0,0,.85.77,61,61,0,0,0,7.39-4.06,54.29,54.29,0,0,0,10.72-9,44.83,44.83,0,0,0,7.66-11.55,32.18,32.18,0,0,0,2.89-13.5c0-6.15-1.71-10.7-5.07-13.5S69.17,16.4,63.13,16.4a34.3,34.3,0,0,0-17.5,4.54A52.35,52.35,0,0,0,32,32.24a55.37,55.37,0,0,0-8.83,14.09C21.09,51.2,20,55.48,20,59a5.12,5.12,0,0,1-3.78,5.18,10.31,10.31,0,0,1-6.92-.31,14.86,14.86,0,0,1-6.42-5.08C1,56.3,0,52.89,0,48.68c0-3.67,1.39-8,4.25-13.23A55.38,55.38,0,0,1,16.5,20.7a72.84,72.84,0,0,1,20-12.07A71,71,0,0,1,64,3.59a75.29,75.29,0,0,1,17.36,2,54.1,54.1,0,0,1,15.46,6.15A36.26,36.26,0,0,1,107.94,22a24.72,24.72,0,0,1,4.34,14.41,35.56,35.56,0,0,1-3.81,16.3A47.55,47.55,0,0,1,98.2,66.09a66.83,66.83,0,0,1-15,10.24,98,98,0,0,1-14.88,6.06.52.52,0,0,0-.43.61c.11,2.59.29,5.14.55,7.6.29,2.83.68,5.58,1.16,8.19s1,5.07,1.66,7.44c.5,1.83,1,3.61,1.64,5.3.38,1.08.78,2.13,1.18,3.13a60.78,60.78,0,0,0,2.66,5.68,48.13,48.13,0,0,0,3,4.9,43.15,43.15,0,0,0,3.3,4.35A35.12,35.12,0,0,0,86.6,133a29.55,29.55,0,0,0,3.74,2.65,28.43,28.43,0,0,0,3.91,1.94,26.78,26.78,0,0,0,8.31,1.86,29.62,29.62,0,0,0,4.41-.06,31.37,31.37,0,0,0,4.61-.75,37.62,37.62,0,0,0,4.77-1.46,45.47,45.47,0,0,0,4.92-2.22c.62-.32,1.25-.67,1.88-1a4.57,4.57,0,0,1,5.3,7.39c-.87.76-1.74,1.5-2.61,2.21-2.09,1.72-4.19,3.31-6.24,4.74s-3.93,2.61-5.89,3.72c-1,.56-2,1.12-3,1.65a62.22,62.22,0,0,1-6,2.67,50.75,50.75,0,0,1-6,1.84,44.92,44.92,0,0,1-5.84,1,40.41,40.41,0,0,1-4.08.21l-1.63,0a37.07,37.07,0,0,1-5.49-.65c-.89-.18-1.78-.39-2.66-.64s-1.71-.51-2.57-.83A34.24,34.24,0,0,1,71.48,155,37.86,37.86,0,0,1,67,152a40,40,0,0,1-3.41-2.88,45.1,45.1,0,0,1-3.8-4.08,50.67,50.67,0,0,1-3.4-4.63,59.36,59.36,0,0,1-3-5.18c-.93-1.79-1.8-3.7-2.6-5.67s-1.53-4.23-2.2-6.37-1.25-4.33-1.79-6.61-1-4.67-1.36-7.06c-.34-2.12-.63-4.31-.86-6.54a.62.62,0,0,0-1.21-.11"/><path class="cls-1" d="M392.53,17.38A17.38,17.38,0,1,1,375.15,0a17.39,17.39,0,0,1,17.38,17.38"/><path class="cls-1" d="M388.65,87.5a5,5,0,0,0-4.15-2.16,4.69,4.69,0,0,0-3.93,2c-1,1.49-2.3,3.26-3.78,5.26a70.16,70.16,0,0,1-5.2,6.26,60.09,60.09,0,0,1-5.27,5c-1.73,1.43-2.86,1.74-3.49,1.74-.45,0-1.27,0-1.46-2.19a28.71,28.71,0,0,1,1-8.86,104.42,104.42,0,0,1,3.8-12.15c1.68-4.46,3.36-8.72,5-12.66s3.17-7.5,4.47-10.41,2.12-4.78,2.43-5.6A6.15,6.15,0,0,0,377,47a12.72,12.72,0,0,0-6.42-3.95,17.74,17.74,0,0,0-8.34-.12,11.25,11.25,0,0,0-7.41,5.4,121.49,121.49,0,0,0-6,11.93c-2.45,5.37-4.83,11.34-7,17.73-1.34,3.88-2.59,7.82-3.71,11.79a33.56,33.56,0,0,1-11,16.8,68.46,68.46,0,0,1-6,4.38c-.92.6-1.85,1.16-2.78,1.67a.31.31,0,0,1-.4-.46q2.42-3.17,4.73-6.83a96.51,96.51,0,0,0,8.59-17.89,84.88,84.88,0,0,0,5-19.64,43,43,0,0,0-.67-15.21,19.67,19.67,0,0,0-5.81-10.2,15.37,15.37,0,0,0-10.42-3.75,23.92,23.92,0,0,0-13.14,3.79,52.32,52.32,0,0,0-7.38,5.71c-.19.18-.34.16-.47-.06a9.52,9.52,0,0,0-2-2.24,15,15,0,0,0-6.78-3.12,15.71,15.71,0,0,0-7.86.54,10.12,10.12,0,0,0-6.15,5.59c-2.5,5.4-5.15,11.7-7.86,18.73S262.21,82,259.71,89.4c-.28.83-.55,1.66-.83,2.49a33.46,33.46,0,0,1-11.39,16q-2.1,1.62-4.34,3.08c-.92.6-1.84,1.16-2.77,1.67a.31.31,0,0,1-.4-.46c1.6-2.11,3.18-4.39,4.72-6.83a95.89,95.89,0,0,0,8.6-17.89,84.3,84.3,0,0,0,5-19.64,43.26,43.26,0,0,0-.66-15.21,19.74,19.74,0,0,0-5.81-10.2,15.33,15.33,0,0,0-10.42-3.75,23.88,23.88,0,0,0-13.14,3.79,52.32,52.32,0,0,0-7.38,5.71c-.19.17-.34.15-.48-.06a9.68,9.68,0,0,0-2-2.24,15.11,15.11,0,0,0-6.79-3.12,15.66,15.66,0,0,0-7.85.54,10.1,10.1,0,0,0-6.15,5.6c-2.51,5.4-5.16,11.7-7.87,18.72-2.54,6.6-5,13.44-7.36,20.37A32.24,32.24,0,0,1,174,101.25c-1,1-2,1.89-3,2.69-1.73,1.43-2.85,1.74-3.49,1.74-.44,0-1.27,0-1.46-2.19a29.34,29.34,0,0,1,1-8.86,102.7,102.7,0,0,1,3.81-12.15c1.65-4.41,3.33-8.67,5-12.66s3.17-7.52,4.47-10.41,2.11-4.78,2.42-5.6a6.15,6.15,0,0,0-1.1-6.8,12.61,12.61,0,0,0-6.54-3.95,17.73,17.73,0,0,0-8.33-.12,11.2,11.2,0,0,0-7.29,5.4c-.36.57-.73,1.21-1.12,1.91a.31.31,0,0,1-.57-.09,17.18,17.18,0,0,0-1.62-4.47,13,13,0,0,0-4.9-5.06,15.66,15.66,0,0,0-8.18-2c-7.69,0-15.49,3.55-23.18,10.55s-13.8,17.84-18.6,32.6a82.51,82.51,0,0,0-3.93,19.55,43.29,43.29,0,0,0,1.42,15.2,20.86,20.86,0,0,0,6.35,10.07,16.37,16.37,0,0,0,10.6,3.93,23.44,23.44,0,0,0,8.53-1.55,32.64,32.64,0,0,0,7.08-4,32.31,32.31,0,0,0,4.55-4,1.86,1.86,0,0,1,3.13.75,14.72,14.72,0,0,0,1.9,4.1,10.84,10.84,0,0,0,9.45,4.65c4.72,0,9.49-2,14.18-5.48a78.22,78.22,0,0,0,6.38-5.3.62.62,0,0,1,1,.64c-1.2,4-2.28,7.94-3.26,11.43-1.65,5.87-3,10.92-4,15-1.33,5.5-1.5,7-1.5,7.68a12.37,12.37,0,0,0,3.11,8.55,17,17,0,0,0,6.88,4.71,14.81,14.81,0,0,0,4.91.91,11.84,11.84,0,0,0,2.54-.28,6.09,6.09,0,0,0,4.87-5.14v-.06c.27-1.84.79-4.33,1.54-7.4s1.72-6.82,2.81-10.79,2.3-8.34,3.75-13.44c.67-2.36,1.39-5,2.15-7.6a.62.62,0,0,1,1.13-.14,17.06,17.06,0,0,0,1.14,1.72c2.34,3.15,6.09,5,11.13,5,1,0,2,.07,3,.07h0a55.9,55.9,0,0,0,20.7-4,83.65,83.65,0,0,0,16.49-8.7.61.61,0,0,1,.94.69c-1.41,4.66-2.68,9.23-3.81,13.23-1.65,5.91-3,11-4,15-1.33,5.51-1.5,7-1.5,7.68a12.37,12.37,0,0,0,3.12,8.55,16.9,16.9,0,0,0,6.88,4.71,14.72,14.72,0,0,0,4.91.91,11.91,11.91,0,0,0,2.54-.28,6.12,6.12,0,0,0,4.87-5.14v-.07c.27-1.84.79-4.33,1.54-7.39s1.72-6.82,2.8-10.79,2.31-8.36,3.75-13.44c.68-2.36,1.39-5,2.16-7.6a.62.62,0,0,1,1.13-.14,18.84,18.84,0,0,0,1.13,1.72c2.35,3.15,6.1,5,11.14,5,1,0,2,.07,3,.07a55.89,55.89,0,0,0,20.69-4,81.26,81.26,0,0,0,19-10.49c.94-.71,1.86-1.43,2.75-2.15a.62.62,0,0,1,1,.49v.71c0,4.42.93,8,2.76,10.72a10.84,10.84,0,0,0,9.45,4.65c4.71,0,9.51-2,14.27-5.47a80.9,80.9,0,0,0,12.68-11.63,124.8,124.8,0,0,0,10-12.88c2.86-4.24,4.77-7.15,5.87-8.88a3.76,3.76,0,0,0,.07-4.2M148.11,64.87a81.84,81.84,0,0,1-2,10.53,99.38,99.38,0,0,1-3.9,12.15c-1.63,4.16-3.37,8.07-5.16,11.63a62.92,62.92,0,0,1-5.29,8.81A24.61,24.61,0,0,1,127,113.1a3.49,3.49,0,0,1-1.88.9.62.62,0,0,1-.26-.06c-.2-.09-.87-.54-1.22-2.67a29.88,29.88,0,0,1-.09-7.44,70.27,70.27,0,0,1,1.84-10.41,97.49,97.49,0,0,1,3.9-12.14c1.65-4.22,3.39-8.13,5.16-11.64a68.7,68.7,0,0,1,5.3-8.92,24.31,24.31,0,0,1,4.75-5.19,3.54,3.54,0,0,1,1.89-.89.66.66,0,0,1,.25,0c.21.1.91.57,1.34,2.72a25.09,25.09,0,0,1,.09,7.46m84.21.18a95.49,95.49,0,0,1-2.57,10.47,119.19,119.19,0,0,1-4.41,12.14c-1.92,4.2-3.9,8.12-5.89,11.64a73.19,73.19,0,0,1-5.82,8.94,25.86,25.86,0,0,1-5.07,5.22,3.82,3.82,0,0,1-2,.91.64.64,0,0,1-.28-.06c-.19-.08-.83-.52-1.11-2.61a25.41,25.41,0,0,1,.41-7.46,93,93,0,0,1,2.57-10.57,116,116,0,0,1,4.43-12.17,102.57,102.57,0,0,1,5.75-11.59,77,77,0,0,1,5.92-8.84,27.11,27.11,0,0,1,5.09-5.14,3.83,3.83,0,0,1,2-.91.53.53,0,0,1,.26,0c.19.09.84.53,1.12,2.62a24.66,24.66,0,0,1-.41,7.36m77.84,0a97.84,97.84,0,0,1-2.57,10.47,121.32,121.32,0,0,1-4.42,12.14c-1.91,4.19-3.89,8.11-5.88,11.64a73.19,73.19,0,0,1-5.82,8.94,26.14,26.14,0,0,1-5.08,5.22,3.82,3.82,0,0,1-2,.91.6.6,0,0,1-.27-.06c-.19-.08-.84-.52-1.12-2.61a25.1,25.1,0,0,1,.42-7.46A91.79,91.79,0,0,1,286,93.67a121.65,121.65,0,0,1,4.43-12.17,102.58,102.58,0,0,1,5.76-11.59,75.35,75.35,0,0,1,5.92-8.84,26.54,26.54,0,0,1,5.09-5.14,3.82,3.82,0,0,1,2-.91.57.57,0,0,1,.27,0c.19.09.83.53,1.11,2.62a24.93,24.93,0,0,1-.4,7.36"/></g></g></svg>