<svg xmlns="http://www.w3.org/2000/svg" viewBox="0 0 129.3 113.56"><defs><style>.cls-1{fill:#e12529;}.cls-2{fill:#ffc619;}</style></defs><title>McDonalds</title><g id="Layer_2" data-name="Layer 2"><g id="CONTENIDO"><rect class="cls-1" width="129.3" height="113.56" rx="8.54"/><path class="cls-2" d="M79.78,27.37c6.64,0,12,28.53,12,63.72h9.62c0-37.89-9.7-68.62-21.66-68.62C73,22.47,66.9,31.7,62.93,46.14c-4-14.44-10-23.67-16.85-23.67-12,0-21.66,30.73-21.66,68.62h9.63c0-35.19,5.39-63.72,12-63.72s12,26.33,12,58.82h9.63c0-32.49,5.39-58.82,12-58.82"/><path class="cls-2" d="M104.51,87.37h-1.26V87h3v.42H105v3.37h-.49Z"/><path class="cls-2" d="M106.73,87h.7l1.2,3.17L109.81,87h.68v3.79H110V87.58h0l-1.17,3.16h-.42l-1.19-3.16h0v3.16h-.49Z"/></g></g></svg>