<svg xmlns="http://www.w3.org/2000/svg" viewBox="0 0 125.39 39.35"><defs><style>.cls-1{fill:#fff;}</style></defs><title>rappi</title><g id="Layer_2" data-name="Layer 2"><g id="CONTENIDO"><path class="cls-1" d="M94.92,5.89a36.88,36.88,0,0,0-8-4.76A15.83,15.83,0,0,0,72.41,2.58,92.71,92.71,0,0,0,63.7,9a1.33,1.33,0,0,1-2,0A92.71,92.71,0,0,0,53,2.58,15.83,15.83,0,0,0,38.49,1.13a36.88,36.88,0,0,0-8,4.76c-3.24,2.36-6.13,5.19-9.36,7.56-7,5.17-12.88,4.8-19.48-1L0,11.06A36.22,36.22,0,0,0,6.23,25.77,31.16,31.16,0,0,0,22,37.66c15.36,5.19,34.75-2,40.69-15.67C68.63,35.62,88,42.85,103.37,37.66a31.15,31.15,0,0,0,15.79-11.89,36.22,36.22,0,0,0,6.23-14.71l-1.63,1.43c-6.6,5.76-12.45,6.13-19.48,1-3.23-2.37-6.12-5.2-9.36-7.56"/></g></g></svg>