<svg xmlns="http://www.w3.org/2000/svg" viewBox="0 0 236.19 126.18"><defs><style>.cls-1{font-size:39.57px;font-family:JornadaSans-Heavy, Jornada Sans;font-weight:800;}.cls-1,.cls-2{fill:#fd3f23;}</style></defs><title>Recurso 2</title><g id="Capa_2" data-name="Capa 2"><g id="CONTENIDO"><text class="cls-1" transform="translate(68.91 31.85) scale(0.94 1)">Solo por</text><path class="cls-2" d="M26.07,86.58c-.5,1.75-1,3.45-1.35,5.07Q24,94.71,23.33,97.2c-.41,1.63-.7,2.94-.86,3.9a3.87,3.87,0,0,1-3.22,3.24,9.52,9.52,0,0,1-4.86-.37A11.74,11.74,0,0,1,9.88,101a7,7,0,0,1-2.1-5.17,41,41,0,0,1,1.28-8.07c.84-3.67,2-8,3.6-12.93s3.4-10.24,5.54-16C20,54,22.1,49.05,24.33,44.18a5,5,0,0,1,4-2.9,30.11,30.11,0,0,1,10.28.34,2.87,2.87,0,0,1,2,4C38.69,49.76,37,53.93,35.42,58c-1.25,3.29-2.45,6.55-3.58,9.71a.38.38,0,0,0,.51.47,36,36,0,0,0,4.45-2.45,32.94,32.94,0,0,0,6.45-5.43,27.13,27.13,0,0,0,4.61-6.95,19.35,19.35,0,0,0,1.74-8.12c0-3.71-1-6.44-3.05-8.13S41.62,34.53,38,34.53a20.69,20.69,0,0,0-10.53,2.73,31.53,31.53,0,0,0-8.2,6.8,32.94,32.94,0,0,0-5.31,8.48,20.12,20.12,0,0,0-1.88,7.64,3.07,3.07,0,0,1-2.28,3.11,6.24,6.24,0,0,1-4.16-.18,8.88,8.88,0,0,1-3.86-3.06A9.78,9.78,0,0,1,0,54c0-2.21.84-4.81,2.56-8a33.33,33.33,0,0,1,7.37-8.87,43.84,43.84,0,0,1,12-7.27,42.65,42.65,0,0,1,16.52-3A45.41,45.41,0,0,1,48.93,28a32.53,32.53,0,0,1,9.3,3.7,21.58,21.58,0,0,1,6.71,6.18,14.79,14.79,0,0,1,2.62,8.67,21.27,21.27,0,0,1-2.3,9.8,28.34,28.34,0,0,1-6.17,8,40.25,40.25,0,0,1-9,6.17,58.82,58.82,0,0,1-9,3.64.32.32,0,0,0-.26.37c.06,1.56.18,3.09.33,4.58.18,1.69.41,3.35.7,4.92s.61,3.05,1,4.48c.3,1.1.63,2.17,1,3.19.23.65.47,1.28.72,1.88a34.77,34.77,0,0,0,1.59,3.42A32.63,32.63,0,0,0,48,100a28.39,28.39,0,0,0,2,2.61,20.44,20.44,0,0,0,2.14,2,18,18,0,0,0,2.25,1.59,17.73,17.73,0,0,0,2.35,1.17,16,16,0,0,0,5,1.12,18.25,18.25,0,0,0,2.66,0,19.11,19.11,0,0,0,2.76-.45,23.1,23.1,0,0,0,2.88-.88,27.51,27.51,0,0,0,3-1.33l1.13-.62a2.75,2.75,0,0,1,3.19,4.45c-.53.45-1.05.9-1.57,1.33-1.26,1-2.52,2-3.76,2.84s-2.36,1.57-3.54,2.24c-.59.34-1.21.68-1.83,1A34.89,34.89,0,0,1,63,118.69a30.1,30.1,0,0,1-3.59,1.11,25.55,25.55,0,0,1-3.51.61c-.83.08-1.65.13-2.46.13l-1,0a21.38,21.38,0,0,1-3.31-.4c-.54-.1-1.07-.23-1.6-.38s-1-.31-1.55-.5a20,20,0,0,1-3-1.34,22.1,22.1,0,0,1-2.72-1.76,23.76,23.76,0,0,1-2-1.73A28.29,28.29,0,0,1,36,112a30.77,30.77,0,0,1-2-2.79,33.9,33.9,0,0,1-1.81-3.12c-.56-1.08-1.08-2.23-1.56-3.41s-.92-2.55-1.33-3.83-.75-2.61-1.07-4-.6-2.81-.83-4.25c-.2-1.27-.37-2.59-.51-3.94a.37.37,0,0,0-.73-.06"/><path class="cls-2" d="M236.19,35.12a10.46,10.46,0,1,1-10.46-10.46,10.46,10.46,0,0,1,10.46,10.46"/><path class="cls-2" d="M233.85,77.31a3,3,0,0,0-2.5-1.3A2.83,2.83,0,0,0,229,77.24c-.62.9-1.39,2-2.27,3.17a42.24,42.24,0,0,1-3.14,3.76,34.93,34.93,0,0,1-3.17,3,3.54,3.54,0,0,1-2.1,1c-.26,0-.76,0-.87-1.31a17.34,17.34,0,0,1,.6-5.33,61.72,61.72,0,0,1,2.29-7.31c1-2.69,2-5.25,3-7.62s1.91-4.51,2.69-6.26,1.28-2.88,1.46-3.37a3.7,3.7,0,0,0-.66-4.1A7.66,7.66,0,0,0,223,50.57a10.61,10.61,0,0,0-5-.07,6.7,6.7,0,0,0-4.45,3.25,71.8,71.8,0,0,0-3.64,7.17c-1.47,3.24-2.9,6.83-4.24,10.67-.81,2.34-1.55,4.71-2.23,7.09a20.25,20.25,0,0,1-6.64,10.12q-1.73,1.4-3.6,2.63c-.56.36-1.11.7-1.67,1a.19.19,0,0,1-.24-.28c1-1.27,1.91-2.65,2.84-4.11a57.79,57.79,0,0,0,5.17-10.77,50.49,50.49,0,0,0,3-11.82,25.84,25.84,0,0,0-.4-9.14,11.83,11.83,0,0,0-3.5-6.14,9.18,9.18,0,0,0-6.27-2.26,14.38,14.38,0,0,0-7.9,2.28,30.89,30.89,0,0,0-4.44,3.44.17.17,0,0,1-.29,0,5.57,5.57,0,0,0-1.21-1.34,8.87,8.87,0,0,0-4.08-1.88,9.41,9.41,0,0,0-4.73.32,6.08,6.08,0,0,0-3.7,3.37c-1.51,3.25-3.1,7-4.73,11.27s-3.22,8.63-4.72,13.11c-.17.5-.34,1-.5,1.5a20.18,20.18,0,0,1-6.85,9.63c-.85.65-1.72,1.26-2.62,1.85-.55.36-1.11.7-1.67,1a.19.19,0,0,1-.23-.28q1.44-1.91,2.84-4.11a57.18,57.18,0,0,0,5.17-10.77,50.61,50.61,0,0,0,3-11.82,26.08,26.08,0,0,0-.4-9.14,11.83,11.83,0,0,0-3.5-6.14,9.22,9.22,0,0,0-6.27-2.26,14.38,14.38,0,0,0-7.9,2.28,31,31,0,0,0-4.45,3.44c-.11.1-.2.09-.28,0a5.39,5.39,0,0,0-1.21-1.34,8.87,8.87,0,0,0-4.08-1.88,9.4,9.4,0,0,0-4.73.32,6.08,6.08,0,0,0-3.7,3.37c-1.51,3.25-3.1,7-4.73,11.27-1.53,4-3,8.08-4.43,12.25a19.47,19.47,0,0,1-5,8q-.93.9-1.8,1.62a3.57,3.57,0,0,1-2.1,1c-.27,0-.76,0-.88-1.31a17.71,17.71,0,0,1,.61-5.33,61.72,61.72,0,0,1,2.29-7.31c1-2.66,2-5.22,3-7.62s1.91-4.52,2.69-6.26S109.78,57.53,110,57a3.7,3.7,0,0,0-.66-4.1,7.56,7.56,0,0,0-3.94-2.37,10.59,10.59,0,0,0-5-.07A6.76,6.76,0,0,0,96,53.74c-.21.35-.43.73-.67,1.15a.18.18,0,0,1-.34,0,10.43,10.43,0,0,0-1-2.69,8,8,0,0,0-2.94-3,9.54,9.54,0,0,0-4.93-1.18c-4.63,0-9.32,2.14-13.94,6.35S63.85,65,61,73.88A49.51,49.51,0,0,0,58.6,85.65a25.79,25.79,0,0,0,.86,9.15,12.47,12.47,0,0,0,3.82,6,9.77,9.77,0,0,0,6.37,2.37,14.29,14.29,0,0,0,5.13-.93,20.22,20.22,0,0,0,4.27-2.41,19.33,19.33,0,0,0,2.73-2.38,1.12,1.12,0,0,1,1.89.45,8.62,8.62,0,0,0,1.14,2.47,6.52,6.52,0,0,0,5.69,2.8A14.45,14.45,0,0,0,99,99.92a45.5,45.5,0,0,0,3.85-3.19.37.37,0,0,1,.61.38c-.73,2.42-1.38,4.78-2,6.88-1,3.53-1.79,6.58-2.39,9a25.47,25.47,0,0,0-.91,4.62,7.4,7.4,0,0,0,1.88,5.14,10.14,10.14,0,0,0,4.14,2.84,8.9,8.9,0,0,0,3,.55,7,7,0,0,0,1.53-.17,3.66,3.66,0,0,0,2.93-3.09v0c.16-1.11.47-2.6.92-4.45s1-4.1,1.69-6.49,1.39-5,2.26-8.09c.4-1.42.83-3,1.29-4.58a.37.37,0,0,1,.68-.08,11.71,11.71,0,0,0,.69,1,8,8,0,0,0,6.7,3c.61,0,1.22,0,1.81,0h0a33.62,33.62,0,0,0,12.45-2.41,49.88,49.88,0,0,0,9.92-5.24.38.38,0,0,1,.57.42c-.85,2.8-1.62,5.56-2.3,8-1,3.55-1.8,6.59-2.39,9a24.92,24.92,0,0,0-.9,4.62,7.44,7.44,0,0,0,1.87,5.14,10,10,0,0,0,4.14,2.84,8.9,8.9,0,0,0,2.95.55,7,7,0,0,0,1.53-.17,3.66,3.66,0,0,0,2.93-3.09v0c.16-1.11.47-2.61.93-4.45s1-4.1,1.68-6.49,1.39-5,2.26-8.09c.41-1.42.84-3,1.3-4.58a.37.37,0,0,1,.68-.08,9.76,9.76,0,0,0,.68,1,8,8,0,0,0,6.7,3c.61,0,1.22,0,1.82,0A33.62,33.62,0,0,0,187,100.85a48.87,48.87,0,0,0,11.43-6.31q.85-.65,1.65-1.29a.37.37,0,0,1,.61.29V94a11.34,11.34,0,0,0,1.66,6.45,6.53,6.53,0,0,0,5.69,2.8c2.83,0,5.72-1.2,8.58-3.29a48.72,48.72,0,0,0,7.64-7,75.57,75.57,0,0,0,6-7.75c1.71-2.55,2.87-4.3,3.53-5.34a2.27,2.27,0,0,0,0-2.53M89.12,63.69A50.1,50.1,0,0,1,87.94,70a57.53,57.53,0,0,1-2.35,7.31c-1,2.5-2,4.85-3.1,7a38.35,38.35,0,0,1-3.18,5.3,14.76,14.76,0,0,1-2.87,3.07,2.09,2.09,0,0,1-1.13.54.45.45,0,0,1-.16,0c-.12-.06-.52-.33-.73-1.61a17.94,17.94,0,0,1-.06-4.47,42.12,42.12,0,0,1,1.11-6.27,58,58,0,0,1,2.35-7.31c1-2.53,2-4.89,3.1-7a40.79,40.79,0,0,1,3.19-5.36A14.78,14.78,0,0,1,87,58.07a2.1,2.1,0,0,1,1.14-.53l.15,0c.12,0,.55.34.81,1.63a15.6,15.6,0,0,1,.05,4.49m50.67.11a58.29,58.29,0,0,1-1.55,6.3,71.5,71.5,0,0,1-2.65,7.3c-1.16,2.53-2.35,4.89-3.55,7a42.66,42.66,0,0,1-3.5,5.38,15.82,15.82,0,0,1-3,3.14,2.33,2.33,0,0,1-1.21.55.29.29,0,0,1-.16,0c-.11,0-.5-.31-.67-1.57a15.14,15.14,0,0,1,.25-4.49A54.52,54.52,0,0,1,125.24,81a71,71,0,0,1,2.67-7.32,61.16,61.16,0,0,1,3.46-7,45.85,45.85,0,0,1,3.56-5.33A16.51,16.51,0,0,1,138,58.31a2.39,2.39,0,0,1,1.21-.55.27.27,0,0,1,.16,0c.12.05.5.31.67,1.57a15,15,0,0,1-.24,4.43m46.83,0a60.48,60.48,0,0,1-1.54,6.3,71,71,0,0,1-2.66,7.3c-1.15,2.53-2.35,4.88-3.54,7a46.68,46.68,0,0,1-3.5,5.38,15.82,15.82,0,0,1-3.06,3.14,2.34,2.34,0,0,1-1.2.55.33.33,0,0,1-.17,0c-.11,0-.5-.31-.67-1.57a15.49,15.49,0,0,1,.25-4.49A55.8,55.8,0,0,1,172.08,81a70.82,70.82,0,0,1,2.66-7.32,62.86,62.86,0,0,1,3.46-7,45.81,45.81,0,0,1,3.57-5.33,16.52,16.52,0,0,1,3.06-3.09,2.34,2.34,0,0,1,1.2-.55.25.25,0,0,1,.16,0c.12.05.5.31.68,1.57a15,15,0,0,1-.25,4.43"/></g></g></svg>